<svg id="svg2" xmlns="http://www.w3.org/2000/svg" viewBox="0 0 800 800"><defs><style>.cls-1{fill:#8892bf;}</style></defs><rect class="cls-1" width="800" height="800"/><g id="g4"><g id="g6"><path id="path8" d="M88.76,268.22H198.43q48.3.42,70,27.7t14.32,74.52a142.75,142.75,0,0,1-12.68,42.35,126.09,126.09,0,0,1-26.19,37.46q-20.46,21.18-43.79,26.88a202.72,202.72,0,0,1-48.29,5.7h-49.1L87.13,560.2H30.24l58.52-292m47.88,46.43L112.09,436.81a30,30,0,0,0,4.91.41h5.73q39.28.4,65.47-7.74,26.19-8.55,35.2-59.45,7.36-42.76-14.74-49.27-21.69-6.52-54.42-6.11c-3.28.27-6.41.41-9.41.41h-8.6l.41-.41"/><path id="path10" d="M347.54,190.47H404l-16,77.78H438.8q41.74.81,62.2,17.1,20.88,16.29,12.28,61.9l-27.42,135.6H428.57l26.19-129.49q4.1-20.37-2.45-28.92t-28.24-8.55l-45.42-.41L345.09,482.85H288.62l58.93-292.38"/><path id="path12" d="M573.93,268.22H683.6q48.28.42,70,27.7t14.32,74.52a142.48,142.48,0,0,1-12.69,42.35A125.72,125.72,0,0,1,729,450.25q-20.46,21.18-43.78,26.88a202.72,202.72,0,0,1-48.29,5.7H587.84L572.29,560.2H515.41l58.52-292m47.88,46.43L597.26,436.81a30,30,0,0,0,4.91.41h5.73q39.29.4,65.47-7.74,26.19-8.55,35.19-59.45,7.37-42.76-14.73-49.27-21.69-6.52-54.42-6.11-4.92.41-9.42.41H621.4l.41-.41"/></g></g></svg>